<?xml version="1.0" encoding="UTF-8" standalone="no"?>
<svg
   xmlns:carica="https://auroratide.com/carica"
   xmlns:dc="http://purl.org/dc/elements/1.1/"
   xmlns:cc="http://creativecommons.org/ns#"
   xmlns:rdf="http://www.w3.org/1999/02/22-rdf-syntax-ns#"
   xmlns:svg="http://www.w3.org/2000/svg"
   xmlns="http://www.w3.org/2000/svg"
   xmlns:sodipodi="http://sodipodi.sourceforge.net/DTD/sodipodi-0.dtd"
   xmlns:inkscape="http://www.inkscape.org/namespaces/inkscape"
   inkscape:version="1.0 (4035a4fb49, 2020-05-01)"
   sodipodi:docname="medium.svg"
   carica:material="hair"
   viewBox="0 0 1200 1200"
   version="1.1"
   id="hair:medium">
  <sodipodi:namedview
     inkscape:current-layer="layer2"
     inkscape:window-maximized="1"
     inkscape:window-y="-8"
     inkscape:window-x="-8"
     inkscape:cy="372.74187"
     inkscape:cx="432.01092"
     inkscape:zoom="0.5008673"
     showgrid="false"
     id="namedview2835"
     inkscape:window-height="1017"
     inkscape:window-width="1920"
     inkscape:pageshadow="2"
     inkscape:pageopacity="0"
     guidetolerance="10"
     gridtolerance="10"
     objecttolerance="10"
     borderopacity="1"
     bordercolor="#666666"
     pagecolor="#ffffff" />
  <metadata
     id="metadata2804">
    <rdf:RDF>
      <cc:Work
         rdf:about="">
        <dc:format>image/svg+xml</dc:format>
        <dc:type
           rdf:resource="http://purl.org/dc/dcmitype/StillImage" />
        <dc:title />
        <cc:license
           rdf:resource="http://creativecommons.org/licenses/by/4.0/" />
      </cc:Work>
      <cc:License
         rdf:about="http://creativecommons.org/licenses/by/4.0/">
        <cc:permits
           rdf:resource="http://creativecommons.org/ns#Reproduction" />
        <cc:permits
           rdf:resource="http://creativecommons.org/ns#Distribution" />
        <cc:requires
           rdf:resource="http://creativecommons.org/ns#Notice" />
        <cc:requires
           rdf:resource="http://creativecommons.org/ns#Attribution" />
        <cc:permits
           rdf:resource="http://creativecommons.org/ns#DerivativeWorks" />
      </cc:License>
    </rdf:RDF>
  </metadata>
  <defs
     id="defs2806" />
  <g
     carica:layer="behind-body"
     sodipodi:insensitive="true"
     style="display:inline"
     inkscape:label="Back"
     id="layer4"
     inkscape:groupmode="layer">
    <path
       id="path2808"
       carica:shade="dark"
       d="m 263.16797,755.80469 c 0,0 8.78515,130.12109 75.96875,221.6875 10.16912,-128.57767 83.43658,-136.69899 83.43658,-136.69899 0,0 59.16498,100.51539 113.43061,134.96071 44.35156,-40.5586 120.42968,-77.96094 120.42968,-77.96094 0,0 64.15625,37.98047 112.11719,84.17187 50.33984,-48.16015 66.94924,-136.2007 66.94924,-136.2007 0,0 44.22654,-10.79148 46.12107,108.5132 102.6836,-227.5664 66.41797,-264.58593 66.41797,-264.58593 0,0 -117.97656,-484.31641 -403.53125,-440.42188 -250.24219,38.46484 -281.33984,506.53516 -281.33984,506.53516 z"
       style="fill:#555555;fill-opacity:1;fill-rule:nonzero;stroke:none" />
    <path
       id="path2810"
       carica:shade="dark"
       d="m 868.78125,674.97266 12.39453,-310.19532 c 0,0 79.26172,-53.375 114.46875,74.25782 35.21097,127.63281 24.82027,414.01171 -49.75781,550.48437 11.61719,-173.21484 -77.10547,-314.54687 -77.10547,-314.54687 z m 0,0"
       style="fill:#555555;fill-opacity:1;fill-rule:nonzero;stroke:none" />
  </g>
  <g
     carica:layer="behind-head"
     sodipodi:insensitive="true"
     style="display:inline"
     inkscape:label="Middle"
     id="layer3"
     inkscape:groupmode="layer">
    <path
       id="path2814"
       d="m 1029.6484,911.94922 c -93.07808,-103.8125 -69.70493,-213.91677 -45.46549,-366.74403 -5.17195,-69.67314 -73.17899,-190.57238 25.67649,-183.94738 74.2773,184.62891 -19.66408,276.86328 19.789,550.69141 z"
       style="fill:#999999;fill-opacity:1;fill-rule:nonzero;stroke:none" />
    <path
       id="path2816"
       carica:shade="dark"
       d="M 1029.6484,911.94922 C 909.50001,789.22266 957.65235,614.62109 996.94142,480.16797 c -1.51563,73.04297 -4.75,100.82031 -17.86329,170.04687 -15.83593,83.625 -8.36718,198.72266 50.57027,261.73438 z m 0,0"
       style="fill:#555555;fill-opacity:1;fill-rule:nonzero;stroke:none" />
  </g>
  <g
     carica:layer="afore-ear"
     sodipodi:insensitive="true"
     inkscape:label="Front"
     id="layer2"
     inkscape:groupmode="layer">
    <path
       id="path2820"
       style="fill:#999999;fill-opacity:1;fill-rule:nonzero;stroke:none"
       d="M 761.51172,662.63672 C 898.68359,559.73047 903.27734,469.45703 903.27734,469.45703 c 0,0 13.39063,50.98438 12.01953,134.3125 C 1004.9805,544.99609 1049.7891,414.87891 1013.625,319.49609 977.45703,224.11719 812.42969,57.164066 575.85547,117.38281 348.87891,63.855473 173.07422,267.03906 155.19922,486.76953 c -12.98828,189.73438 79.2539,246.93359 56.28906,482.19531 98.55859,-126.10937 86.36328,-170.125 83.41406,-187.88281 4.53125,26.11719 23.25,71.28516 98.87891,141.34766 -10.78906,-74.0586 35.01953,-259.0625 24.32812,-313.25782 -6.40234,78.125 19.47657,115.01954 19.64063,233.5586 88.22266,-139.7461 10.3125,-260.89063 38.58984,-370.03516 0,0 7.44532,65.70313 90.25782,125.98047 44.03906,-58.88672 71.26562,-90.99609 81.02343,-145.76953 45.17188,44.82422 89.92188,85.76562 88.73828,151.55078 15.78125,-17.49609 33.16407,-55.91016 13.57422,-88.96484 -6.52734,40.96484 22.00782,60.80468 11.57813,147.14453 z m 0,0" />
    <path
       id="path2822"
       carica:shade="dark"
       style="fill:#555555;fill-opacity:1;fill-rule:nonzero;stroke:none"
       d="m 915.29687,603.76953 c 1.69141,-75.85547 -11.75781,-197.50391 -77.88671,-307.45312 85.60156,108.95703 90.58593,226.22656 77.88671,307.45312 z m 0,0" />
    <path
       id="path2824"
       carica:shade="dark"
       style="fill:#555555;fill-opacity:1;fill-rule:nonzero;stroke:none"
       d="M 393.78125,922.42969 C 243.53125,798.57422 222.98828,618.66797 326.34375,389.53125 297.31641,525.25 202.64062,719.58203 393.78125,922.42969 Z m 0,0" />
    <path
       id="path2826"
       carica:shade="dark"
       style="fill:#555555;fill-opacity:1;fill-rule:nonzero;stroke:none"
       d="m 575.85547,117.38281 c -62.97656,27.23828 -29.92578,49.46485 3.5039,62.48438 -25.14843,-22.26172 -42.82812,-33.44922 -3.5039,-62.48438 z m 0,0" />
    <path
       id="path2828"
       carica:shade="dark"
       style="fill:#555555;fill-opacity:1;fill-rule:nonzero;stroke:none"
       d="M 566.59766,598.67578 C 443.17578,516.90234 456.73437,380.27344 482.94531,288.94531 c -35.42578,177.02735 54.45313,287.91406 83.65235,309.73047 z m 0,0" />
    <path
       id="path2830"
       style="fill:#999999;fill-opacity:1;fill-rule:nonzero;stroke:none"
       d="M 903.27734,469.45703 C 914.91406,307.86328 844.28125,298.01562 822.95703,272.61719 l 23.72656,84.43359 z m 0,0" />
  </g>
</svg>
