<?xml version="1.0" encoding="UTF-8" standalone="no"?>
<svg
   xmlns:dc="http://purl.org/dc/elements/1.1/"
   xmlns:cc="http://creativecommons.org/ns#"
   xmlns:rdf="http://www.w3.org/1999/02/22-rdf-syntax-ns#"
   xmlns:svg="http://www.w3.org/2000/svg"
   xmlns="http://www.w3.org/2000/svg"
   xmlns:sodipodi="http://sodipodi.sourceforge.net/DTD/sodipodi-0.dtd"
   xmlns:inkscape="http://www.inkscape.org/namespaces/inkscape"
   inkscape:version="1.0 (4035a4fb49, 2020-05-01)"
   carica:material="hair"
   xmlns:carica="https://auroratide.com/carica"
   sodipodi:docname="spiked.svg"
   id="hair:spiked"
   version="1.1"
   viewBox="0 0 1200 1200">
  <metadata
     id="metadata993">
    <rdf:RDF>
      <cc:Work
         rdf:about="">
        <dc:format>image/svg+xml</dc:format>
        <dc:type
           rdf:resource="http://purl.org/dc/dcmitype/StillImage" />
      </cc:Work>
    </rdf:RDF>
  </metadata>
  <defs
     id="defs991" />
  <sodipodi:namedview
     inkscape:current-layer="layer1"
     inkscape:window-maximized="1"
     inkscape:window-y="-8"
     inkscape:window-x="-8"
     inkscape:cy="568.3899"
     inkscape:cx="412.7164"
     inkscape:zoom="0.68916667"
     showgrid="false"
     id="namedview989"
     inkscape:window-height="1017"
     inkscape:window-width="1920"
     inkscape:pageshadow="2"
     inkscape:pageopacity="0"
     guidetolerance="10"
     gridtolerance="10"
     objecttolerance="10"
     borderopacity="1"
     bordercolor="#666666"
     pagecolor="#ffffff" />
  <g
     carica:layer="behind-head"
     style="display:inline"
     inkscape:label="Back"
     id="layer3"
     inkscape:groupmode="layer">
    <path
       carica:shade="dark"
       id="path916"
       d="m 685.57031,961.15234 c -17.60937,-21.11328 -97.49609,-62.19531 -97.49609,-62.19531 0,0 -4.04297,38.42969 -0.7461,69.20703 -54.35937,-23.70312 -91.41796,-90.92187 -91.41796,-90.92187 0,0 -3.36719,57.64843 -43.27735,80.75781 -15,-46.85156 -49.42187,-101.8125 -49.42187,-101.8125 0,0 -12.01563,40.25 -37.61719,49.78906 C 381.54687,859.00781 241.43359,619.15234 241.43359,619.15234 L 454.71094,293.96094 953.56641,264.625 915.28906,832.10156 667.96875,901.44922 c 0,0 23.0625,35.64062 17.60156,59.70312 z m 0,0"
       style="fill:#555555;fill-opacity:1;fill-rule:nonzero;stroke:none" />
    <path
       carica:shade="dark"
       id="path914"
       d="m 941.09766,302.97266 c 0,0 58.61718,242.82812 97.16404,292.72265 -83.10154,-35.10547 -54.66404,-52.51953 -54.66404,-52.51953 0,0 9.17187,75.73828 17.34764,119.64063 -51.53905,-32.38672 -67.26952,-140.10938 -67.26952,-140.10938 z m 0,0"
       style="fill:#555555;fill-opacity:1;fill-rule:nonzero;stroke:none" />
  </g>
  <g
     carica:layer="behind-ear"
     style="display:inline"
     inkscape:label="Mid"
     id="layer2"
     inkscape:groupmode="layer">
    <path
       carica:shade="dark"
       id="path922"
       d="M 415.69531,711.30469 C 414.70703,639.34766 456,460.80078 456,460.80078 l -264.60156,-15 c 0,0 -18.35157,193.28516 23.10156,299.09766 8.14062,-41.57813 7.32812,-67.89453 11.59766,-87.59766 5.67578,86.10156 54.27734,147.11719 75.10156,163.80078 21.60547,-78.48047 48,-187.5 48,-187.5 0,0 27.29297,64.57031 66.49609,77.70313 z m 0,0"
       style="fill:#555555;fill-opacity:1;fill-rule:nonzero;stroke:none" />
  </g>
  <g
     carica:layer="afore-ear"
     inkscape:label="Front"
     id="layer1"
     inkscape:groupmode="layer">
    <path
       id="path920"
       d="m 464.90625,448.64062 c 133.84766,-65.03125 256.11328,-19.0664 301.19531,-10.98046 44.65235,-13.98047 103.75781,-28.5 164.73438,-19.33594 52.28515,40.67187 65.08593,53.60156 82.30856,176.49219 55.4024,-141.41797 -8.332,-213.71875 -8.332,-213.71875 0,0 36.4297,-12.41016 73.0742,7.62109 -20.2031,-103.85156 -73.2109,-125.79297 -73.2109,-125.79297 0,0 32.75,-18.87891 78.3515,-9.05078 -44.6757,-66.39063 -110.8398,-69.35938 -110.8398,-69.35938 0,0 18.80078,-84.18749 -22.00391,-131.01953 2.21875,58.8086 -18.22265,89.39844 -18.22265,89.39844 0,0 0.65625,-119.96094 -55.51953,-166.30469 -48.17969,81.164062 -155.07032,135.90235 -155.07032,135.90235 0,0 30.78125,-75.890632 19.28516,-104.02735 -110.29688,61.578125 -255.53906,118.92579 -255.53906,118.92579 0,0 -16.33203,-35.41407 -86.44922,-51.359384 C 370.73437,179.57031 270.58984,221.09375 233.03125,347.99609 246.89844,330.71875 244.46484,298.22656 254.00391,244.5 c -57.92969,69.13672 -49.50782,111.60156 -56.85547,162.77734 83.72265,30.90235 151.23437,50.33985 267.75781,41.36328 z m 0,0"
       style="fill:#999999;fill-opacity:1;fill-rule:nonzero;stroke:none" />
    <path
       id="path924"
       d="m 200.25391,393.71875 c 0,0 -41.55079,137.83984 -28.00391,222.3125 31.72266,-66.85156 78.91406,-152.73438 78.91406,-152.73438 0,0 -0.61328,62.25782 17.13281,94.14454 40.86329,-56.20704 74.50782,-79.71875 74.50782,-79.71875 0,0 -30.26172,52.15625 -4.24219,91.64062 58.58984,-59.75391 150.19141,-164.61719 150.19141,-164.61719 z m 0,0"
       style="fill:#999999;fill-opacity:1;fill-rule:nonzero;stroke:none" />
    <path
       id="path926"
       d="m 486.84375,465.27734 c -44.06641,-69.54687 -131.5625,-60.84375 -172.03906,-103.80468 5.92578,72.82812 59.65234,102.85937 59.65234,102.85937 0,0 -24.12109,20.55469 -39.00781,50.23828 40.83203,-2.82812 68.32812,-6.52734 68.32812,-6.52734 0,0 -30.8125,27.91797 -34.58203,71.96484 32.83594,-20.92578 81.46485,-11.49219 81.46485,-11.49219 l -10.97657,-24.75 c 0,0 3.59766,-16.75781 24.26563,-33.86718 -5.9336,-16.00391 -8.23438,-30.34375 -8.23438,-30.34375 0,0 5.64063,-9.78516 31.12891,-14.27735 z m 0,0"
       style="fill:#999999;fill-opacity:1;fill-rule:nonzero;stroke:none" />
    <path
       carica:shade="dark"
       id="path928"
       d="M 740.41406,8.785152 C 640.80859,63.445308 538.65234,86.9414 484.84766,126.60547 c -44.25782,32.625 -71.58594,61.96875 -102.16016,129.64844 0,0 51.69531,-75.65235 109.77344,-113.39063 C 550.53906,105.12109 647.14453,82.0625 740.41406,8.785152 Z m 0,0"
       style="fill:#555555;fill-opacity:1;fill-rule:nonzero;stroke:none" />
    <path
       id="path930"
       d="m 398.17187,310.98437 c -20.69921,-23.1914 -21.52734,-56.09765 -16.96875,-91.64062 l 30.1211,26.09375 z m 0,0"
       style="fill:#999999;fill-opacity:1;fill-rule:nonzero;stroke:none" />
    <path
       carica:shade="dark"
       id="path932"
       d="m 852.56641,10.08984 c -12.60157,16.308594 -106.26172,90.97657 -142.65625,108.57813 -36.39063,17.59765 -67.625,40.96875 -96.61329,101.33984 44.64844,-57.95703 75.91407,-73.66015 104.03516,-87.66797 28.125,-14.00781 101.32422,-64.5 135.23438,-122.25 z m 0,0"
       style="fill:#555555;fill-opacity:1;fill-rule:nonzero;stroke:none" />
    <path
       id="path934"
       d="m 628.92578,413.08594 -53.64062,-22.42188 c 0,0 -37.11329,44.69922 -0.0859,117.16797 3.61719,-44.54687 32.3164,-84.58594 53.72656,-94.74609 z m 0,0"
       style="fill:#999999;fill-opacity:1;fill-rule:nonzero;stroke:none" />
    <path
       id="path936"
       d="m 737.69922,443.69922 -69.75,-27.59766 25.35156,-14.40234 c 14.57422,13.70703 19.59766,14.99609 44.39844,42 z m 0,0"
       style="fill:#999999;fill-opacity:1;fill-rule:nonzero;stroke:none" />
    <path
       carica:shade="dark"
       id="path938"
       d="m 565.73437,276.63672 c 2.03516,46.58984 13.5586,95.29297 41.79297,120.32422 28.23438,25.03515 75.80078,38.71484 130.74219,47.21875 -40.99219,-31.62891 -81.89453,-16.62891 -122.14844,-60.90235 -25.61328,-25.625 -40.65234,-77.05078 -50.38672,-106.64062 z m 0,0"
       style="fill:#555555;fill-opacity:1;fill-rule:nonzero;stroke:none" />
    <path
       id="path940"
       d="m 823.35547,437.28516 c 26.53515,-1.16797 78.09765,-19.97657 107.37109,-40.28125 l -82.62109,18.13671 z m 0,0"
       style="fill:#999999;fill-opacity:1;fill-rule:nonzero;stroke:none" />
    <path
       carica:shade="dark"
       id="path942"
       d="m 823.19141,437.35547 c 57.45312,-61.29297 82.72265,-102.32031 110.85937,-177.95313 -9.17969,72.66797 -58.76562,158.91407 -110.85937,177.95313 z m 0,0"
       style="fill:#555555;fill-opacity:1;fill-rule:nonzero;stroke:none" />
    <path
       id="path944"
       d="m 890.95312,407.71875 38.1836,4.66406 c 0,0 39.21875,34.07031 18.66797,99.91797 -8.50782,-47.99609 -56.85157,-104.58203 -56.85157,-104.58203 z m 0,0"
       style="fill:#999999;fill-opacity:1;fill-rule:nonzero;stroke:none" />
    <path
       id="path946"
       d="m 471.46484,431.16016 c -16.60937,16.65625 11.76953,3.55859 52.26953,10.92187 -8.46484,-13.53125 -8.66015,-13.21484 -11.01171,-14.21094 21.26171,2.65625 17.46093,-1.0625 47.30468,4.45313 C 548.5,404.30469 531.73828,407.67969 512.93359,397.10937 Z m 0,0"
       style="fill:#999999;fill-opacity:1;fill-rule:nonzero;stroke:none" />
    <path
       carica:shade="dark"
       id="path948"
       d="m 425.41797,343.20312 c -70.42969,-30.28515 -58.99219,-78.67968 -45.01563,-129.32421 1.71485,38.28515 -9.38281,71.92968 45.01563,129.32421 z m 0,0"
       style="fill:#555555;fill-opacity:1;fill-rule:nonzero;stroke:none" />
    <path
       carica:shade="dark"
       id="path950"
       d="m 380.57812,214.07422 c 14.38672,15.09375 20.0586,26.41797 53.85547,32.46094 -35.89453,11.375 -47.8125,-14.85938 -53.85547,-32.46094 z m 0,0"
       style="fill:#555555;fill-opacity:1;fill-rule:nonzero;stroke:none" />
    <path
       carica:shade="dark"
       id="path952"
       d="M 951.19922,54.730465 C 989.91797,91.76562 995.85156,203.33203 934.42969,229.76562 984.84766,188.61328 977.35156,108.12109 951.19922,54.730465 Z m 0,0"
       style="fill:#555555;fill-opacity:1;fill-rule:nonzero;stroke:none" />
    <path
       carica:shade="dark"
       id="path954"
       d="m 314.91016,361.36719 c 54.53125,41.03515 99.33984,40.66797 125.48828,56.23437 26.14843,15.5625 36.625,29.04688 46.20312,48 -66.87109,-59.02734 -114.44922,-39.04687 -171.6914,-104.23437 z m 0,0"
       style="fill:#555555;fill-opacity:1;fill-rule:nonzero;stroke:none" />
    <path
       carica:shade="dark"
       id="path956"
       d="m 314.69922,361.5 c 13.46484,36.77344 32.60937,71.40234 61.19922,102.60156 C 328.04297,440.125 315.73828,402.93359 314.69922,361.5 Z m 0,0"
       style="fill:#555555;fill-opacity:1;fill-rule:nonzero;stroke:none" />
    <path
       carica:shade="dark"
       id="path958"
       d="m 829.99609,295.07031 c 8.50782,-12.04687 37.32032,-53.28906 42.45703,-64.83203 13.75391,62.10547 -2.97265,112.83984 -14.45312,133.66016 9.62109,-45.625 13.08594,-80.33594 9.95703,-106.00782 0.21094,2.02344 -31.83594,33.82813 -37.96094,37.17969 z m 0,0"
       style="fill:#555555;fill-opacity:1;fill-rule:nonzero;stroke:none" />
    <path
       carica:shade="dark"
       id="path960"
       d="m 565.75781,276.40625 c 40.05078,9.40625 67.75,43.12109 90.78906,60.03516 -30.82031,-53.39063 -56.08203,-57.08985 -90.78906,-60.03516 z m 0,0"
       style="fill:#555555;fill-opacity:1;fill-rule:nonzero;stroke:none" />
    <path
       carica:shade="dark"
       id="path962"
       d="m 933.80469,260.07422 c 37.51562,28.39844 38.28906,66.52344 25.05468,97.74219 1.26172,-43.73438 -11.5664,-73.67969 -25.05468,-97.74219 z m 0,0"
       style="fill:#555555;fill-opacity:1;fill-rule:nonzero;stroke:none" />
  </g>
</svg>
